<svg width="44" height="40" viewBox="0 0 44 40" fill="none" xmlns="http://www.w3.org/2000/svg">
<path d="M40.5263 32.9412C41.4184 32.9416 42.2761 33.2908 42.9217 33.9163C43.5674 34.5417 43.9514 35.3956 43.9943 36.301C44.0371 37.2063 43.7356 38.0937 43.152 38.7793C42.5685 39.4649 41.7477 39.8961 40.8598 39.9835L40.5263 40H3.47368C2.5816 39.9996 1.72389 39.6504 1.07826 39.0249C0.432639 38.3994 0.0486037 37.5455 0.00573329 36.6402C-0.0371372 35.7349 0.264444 34.8475 0.847985 34.1619C1.43153 33.4763 2.25229 33.0451 3.14021 32.9576L3.47368 32.9412H40.5263ZM40.5263 16.4706C41.4476 16.4706 42.3311 16.8424 42.9826 17.5043C43.634 18.1662 44 19.0639 44 20C44 20.9361 43.634 21.8338 42.9826 22.4957C42.3311 23.1576 41.4476 23.5294 40.5263 23.5294H3.47368C2.55241 23.5294 1.66886 23.1576 1.01742 22.4957C0.365977 21.8338 0 20.9361 0 20C0 19.0639 0.365977 18.1662 1.01742 17.5043C1.66886 16.8424 2.55241 16.4706 3.47368 16.4706H40.5263ZM40.5263 0C41.4476 0 42.3311 0.371848 42.9826 1.03374C43.634 1.69563 44 2.59335 44 3.52941C44 4.46547 43.634 5.36319 42.9826 6.02508C42.3311 6.68698 41.4476 7.05882 40.5263 7.05882H3.47368C2.55241 7.05882 1.66886 6.68698 1.01742 6.02508C0.365977 5.36319 0 4.46547 0 3.52941C0 2.59335 0.365977 1.69563 1.01742 1.03374C1.66886 0.371848 2.55241 0 3.47368 0H40.5263Z" fill="white"/>
</svg>
